<svg xmlns="http://www.w3.org/2000/svg" viewBox="0 0 140 140">
  <!-- Outer flame -->
  <path d="M70 30c0 0-18 10.8-18 28.8S70 84 70 84s18-7.2 18-25.2S70 30 70 30z"
        fill="cadetblue" opacity="0.9"/>
  
  <!-- Inner flame -->
  <path d="M70 44c0 0-8 4.9-8 13.9 0 13 8 17.3 8 17.3s8-4.2 8-17.1c0-8.8-8-14.1-8-14.1z"
        fill="white" opacity="0.9"/>

  <!-- Hand / cradle -->
  <path d="M30 88c10 10 28 16 44 10 12-4 20-2 26-8 3-3 6-3 10 1 3 3 1 8-3 10-7 4-18 8-28 10-18 4-36-2-50-12-3-2-4-6-2-9 2-3 6-3 8-2z"
        fill="white"/>
</svg>
