<svg width="94" height="87" viewBox="0 0 94 87" fill="none" xmlns="http://www.w3.org/2000/svg">
<path d="M10.8749 34.0721C7.94691 57.6317 21.1719 76.7548 43.9375 81.8798C50.1718 63.101 36.9467 43.9779 10.8749 34.0721Z" fill="#5F9EA0"/>
<path d="M14.1797 38.8519C15.3986 57.2913 25.3183 71.6344 40.6324 77.1C42.7201 63.4416 32.8004 49.0986 14.1797 38.8519Z" fill="#8FBCC5"/>
<path d="M19.1394 46.0232C21.1122 57.7704 27.7259 67.3327 37.3271 72.3197C37.0077 62.9631 30.394 53.4007 19.1394 46.0232Z" fill="white"/>
<path d="M83.313 34.4831C56.8981 43.7527 42.9945 62.547 48.5542 81.4688C71.4933 76.8977 85.3968 58.1034 83.313 34.4831Z" fill="#5F9EA0"/>
<path d="M79.8387 39.1808C60.8595 48.9717 50.4308 63.0681 52.029 76.7711C67.532 71.679 77.9606 57.5826 79.8387 39.1808Z" fill="#8FBCC5"/>
<path d="M74.6244 46.2287C63.1107 53.3303 56.1577 62.7282 55.5037 72.073C65.2792 67.3209 72.2321 57.923 74.6244 46.2287Z" fill="white"/>
<path d="M46.67 0C23.3151 38.5349 23.3151 71.5648 46.67 82.5748C70.0248 71.5648 70.0248 38.5349 46.67 0Z" fill="#5F9EA0"/>
<path d="M46.67 11.01C29.9879 44.0399 29.9879 66.0598 46.67 77.0698C63.352 66.0598 63.352 44.0399 46.67 11.01Z" fill="#8FBCC5"/>
<path d="M46.6703 22.0199C36.661 44.0399 36.661 60.5548 46.6703 71.5648C56.6795 60.5548 56.6795 44.0399 46.6703 22.0199Z" fill="white"/>
</svg>
