<?xml version="1.0" encoding="UTF-8"?>
<svg version="1.1" viewBox="0 0 2017 2048" width="793" height="805" xmlns="http://www.w3.org/2000/svg">
<path transform="translate(564,427)" d="m0 0h40l2 2 11 1 13 5 12 5 5 4 11 6 7 7h7l8-4 8-3 8-1 1-1h46v2h10l13 5 22 11 12 9 16 16 10 15 3 6 5 7v2l7-1 12-6 14-4 1-1 12-2 1-1h23l6 2 8 1 20 8 12 7 7 6 6 4 10 10 4 6v2l5-2 8-8 7-4 14-7 12-4 14-2 1-1h14l1 1 12 1 4 2 10 2 8 3 14 7 7 6 5 1 2-5 7-10 7-7 9-6 7-5 13-5 10-3h33l10 4 9 3h3l2-3 4-13 6-10 6-8 14-14 10-7 10-5 9-3 7-1 1-1h28l1 1 8 1 3 2 9 3 4 2 6-1 6-6 7-4 19-10 9-4 7-2 9-1 6-2h38l4 2 16 3 23 11 11 8 6 4 21 21 9 14 9 17 5 15 3 11 1 13 2 5v20l-2 8-1 11-2 7-5 12-3 8-4 8 4 5 7 11 6 10 5 11 5 16 1 8 1 1v38l-1 1-2 12-6 17-8 15-6 8-4 4 1 4 4 5 7 9 6 11 6 13 2 10 1 1 1 8 2 3v41l-2 3-1 10-5 13-5 12-4 5-3 5-7 10 1 4 6 7 8 14 7 15 2 5 3 12 1 15 1 1v17l-1 1-1 16-4 10-4 13-7 13-6 8-4 5-2 5 9 14 3 4 4 11 5 15 2 12 1 1v40l-1 1-1 10-8 24-8 16-6 9-3 5-7 7-4 7-9 9-6 3-7 6-12 8-13 7-15 5-18 4-2 1-29 1-1 14-1 1-2 10-5 12-8 16-5 8-3 3-3 5-14 14-5 3-6 5-9 5-5 2-4 3-24 7-12 1h-27l-5-2-8-1-13-5-13-7-1-3-5-1-3-3-9-1-1 5-10 10h-4l-1 5-7 6-1 2h-2v-3l-4 6-2 2-7 2-16 6-6 2-9 1-2 1-9 1h-16l-22-3-17-6-6-3 1 7 3 9 1 7 2 6 1 10 1 1v53l-1 1-2 15-2 9-10 25-9 17-4 7-6 8-4 7-6 8-8 16-3 13-1 14h-2v50l-2 2-2 7-4 7-8 6-8 4h-22l-9-4-7-7-4-7-3-9-1-64-2-5-2-10-4-13-8-16-9-20-7-15-4-10-6-14-4-11-8-24-3-11-4-23-4-16-1-22-2-4v-25l2-4 1-19 4-14 3-15 3-8 5-12 10-19 7-10 6-8 22-22 10-7 8-5 17-8 16-5 8-1 1-1 49-1 8-7 5-3 13-7 9-3 3-2 8-1 1-1 7-1h28l8 1 1 1 10 2 8 3 7 2 9 6 5 3 9 6 8 8 5 1 6-10 7-10 11-11 10-7 8-5 10-5 13-4 2-1h46l1 3 3-1 7 1 10 5-1-10-1-1-2-15-1-1v-20l2-3 1-13 3-11 5-12 5-10 13-19 11-11-1-4-6-7-8-15-4-9-3-7-2-8-1-3-1-12-1-1v-21l1-1 2-15 1-1 2-10 5-12 8-13 3-6 4-6 4-1-1-7-6-6-1-6-4-2-6-11-3-5-4-10-4-16-1-1v-42l1-1 2-12 3-8 4-11 6-10 6-8 3-5 3-6-5-1-7-10-6-11-3-5-4-10-3-8-2-9-1-4v-39l2-4 2-10 7-19 6-11 3-4-1-5-19-9-11-6-4-1-3 13-5 12-9 17-5 5-4 7-8 5-6 5-11 5-5 2-10 2-4 1h-24v-2l-7-1-5-1-5 2-3 8-5 5-5 6 1 5 3 9 1 11 2 2v44l-1 1-2 10-3 8-2 7-4 2 2 1-1 3-3 1v4l-3 6-5 2-1 2 3 1-9 9h-4l-1 5-7 7-14 9-7 4-13 5-12 3-11 1-1 1-304 1-15 5-12 7-9 9-3 5-5 10-2 7v22l5 12 7 13 9 9 17 9 14 1 1 1 24 1h74l8 1 8 3 15 5 16 9 10 9 10 10 10 16 5 13 2 6 1 9 2 2v36l-2 3-1 11-3 8-4 11-10 15-16 16-14 9-7 4-15 5-9 2-3 1h-43v2l-8 2-9 4-8 6-10 10-5 10-2 7-1 22 2 4 2 7 3 3 4 7 4 6 6 4 6 6 1 7h2v9l-6 11-5 6-7 4h-12l-11-6-20-20v-4l-4-2-6-12-5-15-1-13-2-3v-19l2-4 1-12 5-13 9-17 3-3 3-6 5-4 7-8 5-4 15-9 12-6 7-2 1-1h14v-2l39-1 13-5 16-10 10-15 3-7 1-10 1-1v-9l-1-1-2-12-8-16-9-9-5-3-13-7-24-1-2-2h-5l-2 2h-54l-2-2-32-1-7-2-10-3-17-9-8-6-19-19-3-5-10-19-5-17-1-13-2-6 1-10 1-1 1-15 2-4 3-14 7-13 7-10 4-6 10-10 9-6 8-5 16-8 6-2 9-2 4-1 311-1 1-1 10-2 17-9 6-5 4-3 3-5 6-8 4-9 2-8v-22l-1-1-1-11-2-3v-3h-18l-10-1-1-1-8-1-12-5-14-7-5 1-10 7-5 4-20 10-9 3-7 1-1 1h-42l-1-1-10-2-12-5-16-8-7-6-11-9-5-4-5 2-14 8-11 4-11 3-14 2-1 1h-19l-18-4-21-7-3-3-10-5-11-8-9-9-10-15-4-4-7 1-9 2-1 1-11 1-1 1-14 1-6-2-13-1-12-5-17-9-9-6v-2l-4-2-8-8-9-13-5-7-3-7v-5l-9 2-21 10-9 4-1 2 15 30 1 8 1 1 1 11 2 2v32l-1 1-2 12-3 8-4 11-7 13-5 8-1 3-5 1 2 7 7 7 14 28 3 12v5l2 2v37l-1 1-2 12-5 13-4 9-5 8-3 5-5 9 8 11 6 9 9 19 4 12 2 14 1 1v22l-1 1-2 15-1 1-2 10-5 12-6 11-2 3-1 8 5 2 8 7v2h2l7 8 6 7 7 10 3 5 2 6 5 10 2 9 1 2 1 13 2 5v13l-2 7-1 16-2 6-3 11-9 17-5 8v12l4 10 2 6 9 19 17 17 12 6 9 3 6 5 3 8v12l-3 8-2 3h-2v2l-7 3-6 2h-7l-1-1-9-1-3-2-9-3-8-5-7-7-6-3-3-6-7-7-6-9-8-16-5-11-3-7-10 3-8 4-8 1-14 4h-30l-24-6-6-3-9-3-5-4-7-4-8-6-20-20-8-13-6-12-6-15-2-12-1-1v-50l1-1 2-10 6-17 10-19 3-4-1-6-6-6-3-5-5-6-7-15-6-18-2-7v-41l2-3 1-8 3-8 5-12 7-13 6-8 3-3-1-5-4-6-8-11-6-12-6-16-2-7-1-15-2-4 1-7 1-1 1-16 2-3 1-8 5-12 4-9 8-14 5-5-2-5-4-6-6-6-5-10-3-4-3-9-5-13-2-7v-44l5-17 5-13 6-10 6-8 4-7 1-1-1-7-6-14-2-4-1-10-2-4-1-18-1-1v-9l1-1 1-20 2-4 2-9 6-18 8-14 8-13 24-24 14-9 16-8 14-4 1-1 8-1zm632 82 1 2zm-750 219m766 99m-433 181m1 1m4 2m2 2m6 3m5 2m7 3m19 5v1h5v-1zm109 2v2h3v-2zm-259 96m-1 1m5 13v3h2l-1-3zm263 2m-40 3m5 0m2 0v1h26v-1zm-21 2v2l6-1v-1zm-206 3m196 0m-34 18m-2 2m-158 5m-2 18 1 4zm0 5m-2 8v3zm136 5 1 2zm-139 5m137 3v6h1v-6zm491 7m49 2m-543 11v11h1v-11zm311 10m-309 10 1 7h1l-1-7zm3 13 1 4 1-2zm-147 2 1 2zm150 6m8 15m-1 1m-106 55m206 10m-2 5m-6 15 1 4zm-2 11 1 3zm-1 3m-2 10v8h1v-8zm341 12m-1 1m111 2m-95 5m5 2 2 2v-2zm75 1m-67 2 3 2v-2zm56 0 4 1zm-43 2v2l3-1zm33 0 4 1zm-5 1m-110 2m-1 1m-301 2-1 8h2v-8zm2 22v9h1v-9zm180 6 1 3h2l-1-3zm-180 8 1 2zm183 4m1 5 1 2zm-182 3 1 3zm1 3 1 3zm183 5v11h1v-11zm-182 4 1 6h1v-5zm3 13 1 4 1-2zm179 0v12h1v-12zm-176 10 1 3zm1 3 1 2zm175 2v6h1v-6zm-174 2 1 2zm1 2 1 3zm2 9m169 5 1 2zm-167 2m1 1m165 1 1 2zm-2 12 1 3zm-2 9m-3 8 1 2z" fill="#5F9FA0"/>
<path transform="translate(1133,964)" d="m0 0h26l12 5 8 5 9 6 5 6 2 3h5l2-5 9-9 6-4 10-5 5-2h30l13 5 11 8 8 8 8 13 3 7 1 7 1 1v25l-1 1-1 10-8 19-9 14-5 5-3 5-9 10-27 27-8 7-6 4-12 12-7 4-8 7-5 4h-3l-2-3-6-3-10-10-5-3-11-10-5-3-19-19-6-4-5-5-6-8-13-13-6-9-3-5-2-3-3-9-5-13-2-8v-25l2-5 2-8 8-15 11-11 19-9z" fill="#5F9FA0"/>
</svg>
