<?xml version="1.0" encoding="UTF-8"?>
<svg version="1.1" viewBox="0 0 2017 2048" width="793" height="805" xmlns="http://www.w3.org/2000/svg">
<path transform="translate(564,427)" d="m0 0h40l2 2 11 1 13 5 12 5 5 4 11 6 7 7h7l8-4 8-3 8-1 1-1h46v2h10l13 5 22 11 12 9 16 16 10 15 3 6 5 7v2l7-1 12-6 14-4 1-1 12-2 1-1h23l6 2 8 1 20 8 12 7 7 6 6 4 10 10 4 6v2l5-2 8-8 7-4 14-7 12-4 14-2 1-1h14l1 1 12 1 4 2 10 2 8 3 14 7 7 6 5 1 2-5 7-10 7-7 9-6 7-5 13-5 10-3h32l10 3 10 4h3l2-3 4-13 6-10 6-8 14-14 10-7 10-5 9-3 7-1 1-1h28l1 1 8 1 3 2 9 3 4 2 6-1 6-6 7-4 19-10 9-4 7-2 9-1 6-2h38l4 2 16 3 23 11 11 8 6 4 21 21 9 14 9 17 5 15 3 11 1 13 2 5v20l-2 8-1 11-2 7-5 12-3 8-4 8 4 5 7 11 6 10 5 11 5 16 1 8 1 1v38l-1 1-2 12-6 17-8 15-6 8-4 4 1 4 4 5 7 9 6 11 6 13 2 10 1 1 1 8 2 3v41l-2 3-1 10-5 13-5 12-4 5-3 5-7 10 1 4 6 7 8 14 7 15 2 5 3 12 1 15 1 1v17l-1 1-1 16-4 10-4 13-7 13-6 8-4 5-2 5 9 14 3 4 4 11 5 15 2 12 1 1v40l-1 1-1 10-8 24-8 16-6 9-3 5-7 7-4 7-9 9-6 3-7 6-12 8-13 7-15 5-18 4-2 1-29 1-1 14-1 1-2 10-5 12-8 16-5 8-3 3-3 5-14 14-5 3-8 6-7 4-5 2-4 3-24 7-12 1h-26l-16-4-17-7-8-5v-2l-5-1-3-3-9-1-1 5-10 10h-4l-1 5-7 6-1 2h-2l3-6-4 4-3 5-2 2-7 2-16 6-6 2-9 1-2 1-9 1h-16l-24-4-15-5-6-3 1 7 3 9 1 7 2 7 1 9 1 2v52l-1 1-2 15-2 9-4 10-9 21-8 15-7 10-9 14-3 5-7 13-3 14-1 13h-2v50l-2 2-2 7-4 7-8 6-8 4h-22l-9-4-7-7-4-7-3-9-1-64-2-5-2-10-4-13-8-16-9-20-7-15-4-10-6-14-4-11-6-18-5-18-7-36-1-4-1-20-1-1-1-27 2-5 1-18 4-15 2-9h2l-1-6 3-8 5-12 10-19 7-10 6-8 22-22 10-7 8-5 17-8 16-5 8-1 1-1 49-1 8-7 5-3 13-7 9-3 4-2 7-1 1-1 7-1h28l8 1 1 1 10 2 8 3 7 2 9 6 5 3 9 6 8 8 5 1 6-10 7-10 11-11 10-7 8-5 10-5 12-3 4-2h41l15 3v2l5 1 5 2-1-10-1-1-2-15-1-2v-19l2-3 1-13 3-11 5-12 5-10 13-19 11-11-1-4-6-7-8-15-4-9-3-7-2-8-1-3-1-12-1-1v-21l1-1 2-15 1-1 2-10 5-12 8-13 3-6 4-6 4-1-1-7-6-6-1-6-4-2-6-11-3-5-4-10-4-16-1-1v-42l1-1 2-12 3-8 4-11 6-10 6-8 3-5 3-6-5-1-7-10-6-11-3-5-4-10-3-8-2-9-1-4v-39l2-4 2-10 7-19 6-11 3-4-1-5-19-9-11-6-4-1-3 13-5 12-9 17-5 5-4 7-8 5-6 5-11 5-5 2-10 2-4 1h-24v-2l-7-1-5-1-5 2-3 8-5 5-5 6 1 5 3 9 1 11 2 2v44l-1 1-2 10-3 8-2 7-4 2 2 1v2l-4 2v4l-3 6-6 3-2 3 5-2v2l-8 7-5 1-1 5-7 7-14 9-7 4-13 5-12 3-11 1-1 1-304 1-15 5-12 7-9 9-3 5-5 10-2 7v22l5 12 7 13 9 9 17 9 14 1 1 1 23 1h75l8 1 8 3 15 5 16 9 10 9 10 10 10 16 5 13 2 6 1 9 2 2v36l-2 3-1 11-3 8-4 11-10 15-16 16-14 9-7 4-15 5-12 3h-43v2l-8 2-9 4-8 6-10 10-5 10-2 7-1 22 2 4 2 7 3 3 4 7 4 6 6 4 6 6 1 7h2v9l-6 11-5 6-7 4h-12l-11-6-20-20v-4h2l-1-2-3 2-3-4-6-14-4-12-1-11-2-10v-13l2-5 2-13 4-11 9-17 3-3 3-6 3-1v-2l5-5 9-8 6-4 15-8 13-5 15-2 1-1 39-1 3-2 9-3 16-10 10-15 3-7 1-10 1-1v-9l-1-1-2-12-8-16-9-9-5-3-13-7-24-1-2-2h-5l-2 2h-54l-2-2-31-1-18-5-17-9-8-6-19-19-3-5-10-19-5-17-1-13-2-6 1-10 1-1 1-15 2-4 3-14 7-13 7-10 4-6 10-10 9-6 8-5 16-8 6-2 9-2 4-1 311-1 1-1 10-2 17-9 6-5 4-3 3-5 6-8 4-9 2-8v-22l-1-1-1-11-2-3v-3h-18l-10-1-1-1-8-1-12-5-14-7-5 1-10 7-5 4-20 10-9 3-7 1-1 1h-42l-1-1-10-2-12-5-16-8-7-6-11-9-5-4-5 2-14 8-11 4-11 3-14 2-1 1h-19l-18-4-21-7-3-3-10-5-11-8-9-9-10-15-4-4-7 1-9 2-1 1-11 1-1 1-14 1-6-2-13-1-12-5-17-9-9-6v-2l-4-2-8-8-9-13-5-7-3-7v-5l-9 2-21 10-9 4-1 2 15 30 1 8 1 1 1 11 2 2v32l-1 1-2 12-3 8-4 11-7 13-5 8-1 3-5 1 2 7 7 7 14 28 3 12v5l2 2v37l-1 1-2 12-5 13-4 9-5 8-3 5-5 9 8 11 6 9 9 19 4 12 2 14 1 1v22l-1 1-2 15-1 1-2 10-5 12-6 11-2 3-1 8 5 2 8 7v2h2l14 16 9 14 2 6 5 11 3 10 1 13 2 5v12l-1 7-1 4-1 12-5 18-10 19-4 6v11l5 16 9 17 3 5 15 15 12 6 9 3 6 5 3 8v12l-3 8-2 3h-2v2l-5 2-8 3h-7l-1-1-9-1-3-2-9-3-8-5-7-7-6-3-3-6-7-7-6-9-8-16-5-11-3-7-10 3-8 4-8 1-14 4h-30l-24-6-6-3-9-3-5-4-7-4-8-6-20-20-8-13-6-12-6-15-2-12-1-1v-50l1-1 2-10 6-17 10-19 3-4-1-6-6-6-3-5-5-6-7-15-6-18-2-7v-41l2-3 1-8 3-8 5-12 7-13 6-8 3-3-1-5-4-6-8-11-6-12-6-16-2-7-1-15-2-4 1-7 1-1 1-16 2-3 1-8 5-12 4-9 8-14 5-5-2-5-4-6-6-6-5-10-3-4-3-9-4-10-2-9-1-1v-44l5-17 5-13 6-10 6-8 4-7 1-1-1-7-6-14-2-4-1-10-2-4-1-18-1-1v-9l1-1 1-20 2-4 2-9 6-18 8-14 8-13 24-24 14-9 16-8 14-4 1-1 8-1zm632 82v2h2v-2zm-751 219 2 2v-2zm333 280 1 2h2v-2zm5 2 4 5 2-1-4-4zm8 5v2l3 1-1-3zm5 3 1 2 2-1zm8 2 1 3v-3zm18 5v2h7l-1-2zm109 3v2h5l-1-2zm-258 96v3zm4 13-1 4 3 1-1-5zm262 3v2h2v-2zm-41 2 1 3h32l3-3zm-7 2-6 1v2h7v-3zm-212 3 1 3 1-3zm197 0v3zm-24 11v2h2v-2zm-9 7-6 6 1 2 6-6zm-161 8v2h2v-2zm151 2-1 2h2zm-6 8v2h2v-2zm-147 8-1 7h2l1-7zm142 0 1 2 1-2zm-2 4-1 3h2zm-3 5-1 3 3-1zm-140 3v5l2-1v-4zm138 5v3zm-2 3m-138 2-1 3h2zm137 3-1 8h2l1-8zm530 7v3zm-44 1 1 2zm4 0 2 2 1-2zm49 2v2h2v-2zm-542 10v13h2v-12zm311 10 1 3v-3zm-309 10 1 8h2l-1-7zm2 13 2 6h1v-5zm-147 3v2h3v-2zm150 5 1 2 2-1zm-98 71v3h2l-1-3zm205 11v2h2v-2zm-1 4-1 3h2zm-6 16v5l2-1-1-4zm-2 10-1 6 2-1v-5zm-3 13v10h2v-10zm341 13-1 2h2zm109 2v2h2v-2zm-94 5 1 3v-3zm5 3 1 2 2-1zm74 0-1 2h3v-2zm-66 2v2l4 1v-2zm58 0-4 2 3 1 3-1v-2zm-45 3v2l4-1zm27 0v2h7l4-2zm-412 5v10h2v-10zm2 22 1 11 2-1v-8zm181 6v4l3 1-1-5zm-181 8 1 4h2l-1-4zm184 5v2h2v-2zm0 5v2l3-1zm-181 2 1 8h1v-7zm183 8v12h3v-8l-1-4zm-181 4 2 10h1l-1-9zm2 12m1 1 1 6h1v-5zm178 1v12h3v-12zm-176 9 2 7h1l-1-7zm176 6v7h2l1-7zm-173 1 1 6h2l-2-6zm3 11v3h2l-1-3zm169 5-1 1v7l2-1v-7zm-167 3 2 3v-3zm3 8v2h2v-2zm161 5-1 5 2-1 1-4zm-3 10 1 3 1-3zm-3 8v2l3-1zm-10 23 2 2v-2z" fill="#FEFEFE"/>
<path transform="translate(1133,964)" d="m0 0h26l12 5 8 5 9 6 5 6 2 3h5l2-5 9-9 6-4 10-5 5-2h30l13 5 11 8 8 8 6 9 5 10 1 8 1 1v25h-2v11l-8 19-9 14-5 5-3 5-9 10-27 27-8 7-6 4-12 12-7 4-8 7-5 4h-3l-2-3-6-3-10-10-5-3-11-10-5-3-19-19-6-4-5-5-6-8-13-13-6-9-3-5-2-3-3-9-5-13-2-8v-25l2-5 2-8 8-15 11-11 19-9zm167 41v2h2v-2z" fill="#FEFEFE"/>
<path transform="translate(1463,1575)" d="m0 0" fill="#FEFEFE"/>
<path transform="translate(1464,1574)" d="m0 0" fill="#FEFEFE"/>
<path transform="translate(1700,1331)" d="m0 0" fill="#FEFEFE"/>
</svg>
